<svg width="147" height="40" viewBox="0 0 147 40" fill="none" xmlns="http://www.w3.org/2000/svg">
<g clip-path="url(#clip0_2001_6440)">
<path d="M33.3333 16.25C31.2541 16.25 29.4228 17.7375 28.3333 20C29.4228 22.2625 31.2541 23.75 33.3333 23.75C35.4124 23.75 37.2437 22.2625 38.3333 20C37.2437 17.7375 35.4124 16.25 33.3333 16.25ZM33.3333 22.5C31.952 22.5 30.8333 21.3812 30.8333 20C30.8333 18.6187 31.952 17.5 33.3333 17.5C34.7145 17.5 35.8333 18.6187 35.8333 20C35.8333 21.3812 34.7145 22.5 33.3333 22.5Z" fill="white"/>
<path fill-rule="evenodd" clip-rule="evenodd" d="M26.6667 0H13.3333L0 13.3333V26.667L14.5833 26.6667L26.6667 14.5833L26.6667 0ZM6.66667 23.7503C4.5875 23.7503 2.75625 22.2628 1.66667 20.0003C2.75625 17.7378 4.5875 16.2503 6.66667 16.2503C8.74583 16.2503 10.5771 17.7378 11.6667 20.0003C10.5771 22.2628 8.74583 23.7503 6.66667 23.7503Z" fill="white"/>
<path d="M26.6666 13.3336L25.4166 14.5836H27.1853H27.7083H38.7499V26.1482L26.1478 38.7503H14.5833V28.1253V27.1857V25.417L13.3333 26.667V40.0003H26.6666L39.9999 26.667V13.3336H26.6666Z" fill="white"/>
<path d="M26.9538 25.4949L13.5159 38.9329L14.3998 39.8167L27.8377 26.3788L26.9538 25.4949Z" fill="white"/>
<path d="M38.8281 13.6208L38.4985 13.9503L39.3824 14.8342L39.7119 14.5047L38.8281 13.6208Z" fill="white"/>
<path d="M38.8171 13.6684L38.5195 13.966L39.4034 14.8499L39.701 14.5523L38.8171 13.6684Z" fill="white"/>
<path d="M6.66675 22.5C8.04746 22.5 9.16675 21.3807 9.16675 20C9.16675 18.6193 8.04746 17.5 6.66675 17.5C5.28604 17.5 4.16675 18.6193 4.16675 20C4.16675 21.3807 5.28604 22.5 6.66675 22.5Z" fill="white"/>
<path d="M38.7501 14.5836V25.417H27.9167V14.5836H38.7501ZM40.0001 13.3336H26.6667V26.667H40.0001V13.3336Z" fill="white"/>
<path d="M57.7083 19.4165H51.875V14.8332H50V19.4165V21.0832V25.6665H51.875V21.0832H57.7083V25.6665H59.5833V21.0832V19.4165V14.8332H57.7083V19.4165Z" fill="white"/>
<path d="M126.25 17.125C123.542 17.125 122.083 19.0833 122.083 21.5C122.083 23.9167 123.542 25.875 126.25 25.875C128.958 25.875 130.417 23.9167 130.417 21.5C130.417 19.0833 128.958 17.125 126.25 17.125ZM126.25 24.2083C123.994 24.2083 123.958 22.3146 123.958 21.5C123.958 20.6854 123.994 18.7917 126.25 18.7917C128.506 18.7917 128.542 20.6854 128.542 21.5C128.542 22.3146 128.506 24.2083 126.25 24.2083Z" fill="white"/>
<path d="M135.625 17.125C132.917 17.125 131.458 19.0833 131.458 21.5C131.458 23.9167 132.917 25.875 135.625 25.875C138.333 25.875 139.792 23.9167 139.792 21.5C139.792 19.0833 138.333 17.125 135.625 17.125ZM135.625 24.2083C133.369 24.2083 133.333 22.3146 133.333 21.5C133.333 20.6854 133.369 18.7917 135.625 18.7917C137.881 18.7917 137.917 20.6854 137.917 21.5C137.917 22.3146 137.881 24.2083 135.625 24.2083Z" fill="white"/>
<path d="M74.1667 18.7917C75.8167 18.7917 76.2792 19.8042 76.4083 20.6667H78.2708C77.9688 18.65 76.5542 17.125 74.1667 17.125C71.4583 17.125 70 19.0833 70 21.5C70 23.9167 71.4583 25.875 74.1667 25.875C76.4708 25.875 77.8667 24.4542 78.2333 22.5417H76.3708C76.1979 23.35 75.6854 24.2083 74.1667 24.2083C71.9104 24.2083 71.875 22.3146 71.875 21.5C71.875 20.6854 71.9104 18.7917 74.1667 18.7917Z" fill="white"/>
<path d="M87.7082 17.5417H85.1019L81.6665 21.1V14H79.7915V25.6667H81.6665V23.7979L83.1498 22.2625L85.4457 25.6667H87.7082L84.4811 20.8833L87.7082 17.5417Z" fill="white"/>
<path d="M91.8749 17.125C89.1666 17.125 87.7083 19.0833 87.7083 21.5C87.7083 23.9167 89.1666 25.875 91.8749 25.875C94.1791 25.875 95.5749 24.4542 95.9416 22.5417H94.0791C93.9062 23.35 93.3937 24.2083 91.8749 24.2083C90.0895 24.2083 89.6958 23.0229 89.6083 22.125H96.0041C96.027 21.9208 96.0416 21.7125 96.0416 21.5C96.0416 19.0833 94.5833 17.125 91.8749 17.125ZM89.6332 20.6667C89.7624 19.8042 90.2249 18.7917 91.8749 18.7917C93.5249 18.7917 93.9874 19.8042 94.1166 20.6667H89.6353H89.6332Z" fill="white"/>
<path d="M112.083 14.8332H106.458V25.6665H108.333V21.7082H112.083C113.921 21.7082 115.417 20.1665 115.417 18.2707C115.417 16.3749 113.921 14.8332 112.083 14.8332ZM112.083 20.0415H108.333V16.4999H112.083C113.029 16.4999 113.8 17.2936 113.8 18.2707C113.8 19.2478 113.029 20.0415 112.083 20.0415Z" fill="white"/>
<path d="M118.333 19.2082V18.7915L117.917 17.5415H116.458V25.6665H118.333V21.0832C118.333 20.2499 119.375 19.2082 120.821 19.2082H121.458V17.3332H120.821C119.375 17.3332 118.333 18.3749 118.333 19.2082Z" fill="white"/>
<path d="M101.646 17.3332C100.54 17.3332 99.5541 17.8436 98.9083 18.6415L98.5416 17.5415H97.0833V25.6665H98.9583V21.0665C98.9583 19.8103 99.977 18.7915 101.233 18.7915C102.048 18.7915 102.708 19.4519 102.708 20.2644V25.6665H104.583V20.2499C104.573 18.6374 103.262 17.3332 101.646 17.3332Z" fill="white"/>
<path d="M145.1 15.4583H146.458V14H144.506C143.052 14 141.875 15.1771 141.875 16.6312V17.3333H140.625V18.7917H141.875V25.6667H143.75V18.7917H146.25V17.3333H143.75V16.8083C143.75 16.0625 144.354 15.4583 145.1 15.4583Z" fill="white"/>
<path d="M68.5001 23.8481V19.9876C68.5001 18.171 67.2438 16.9168 64.9688 16.9168C62.6938 16.9168 61.198 18.171 61.023 19.9731H62.9167C63.0272 19.0876 63.823 18.4772 64.9376 18.4772C66.0522 18.4772 66.6563 19.0231 66.6709 19.8606C66.6542 20.5356 65.7167 20.5835 64.4438 20.7293C62.8063 20.9231 60.848 21.3397 60.8334 23.3356C60.8167 24.9272 62.0897 25.8772 64.0313 25.8772C65.4626 25.8772 66.3855 25.3314 66.8792 24.4126C66.8959 24.5085 66.9272 24.621 66.9584 24.7022C67.1022 25.346 67.6272 25.7001 68.4855 25.7001H69.3772V24.221H68.9167C68.6313 24.221 68.5042 24.0918 68.5042 23.8501L68.5001 23.8481ZM66.6709 22.5397C66.6709 23.6793 65.7001 24.4189 64.4126 24.4189C63.3147 24.4189 62.7272 23.9856 62.7272 23.246C62.7272 22.346 63.6022 22.2022 64.6522 22.0731C65.5438 21.9606 66.3542 21.8481 66.673 21.3501V22.5376L66.6709 22.5397Z" fill="white"/>
</g>
<defs>
<clipPath id="clip0_2001_6440">
<rect width="146.458" height="40" fill="white"/>
</clipPath>
</defs>
</svg>
